<svg width="281" height="283" viewBox="0 0 281 283" fill="none" xmlns="http://www.w3.org/2000/svg">
<path d="M158.537 228.987C158.191 229.275 157.541 229.665 156.587 230.157C155.663 230.648 154.522 231.081 153.164 231.457C151.806 231.832 150.304 232.005 148.658 231.977C146.144 231.919 143.891 231.471 141.898 230.633C139.933 229.767 138.258 228.597 136.871 227.123C135.513 225.65 134.473 223.96 133.751 222.053C133.029 220.147 132.668 218.11 132.668 215.944C132.668 213.517 133.029 211.293 133.751 209.27C134.502 207.248 135.557 205.5 136.915 204.027C138.301 202.554 139.948 201.413 141.854 200.604C143.761 199.795 145.87 199.391 148.181 199.391C150.319 199.391 152.211 199.68 153.857 200.257C155.504 200.835 156.847 201.456 157.887 202.121L155.417 208.057C154.695 207.508 153.727 206.945 152.514 206.367C151.33 205.76 149.958 205.457 148.398 205.457C146.78 205.457 145.263 205.905 143.848 206.8C142.461 207.696 141.334 208.909 140.468 210.44C139.63 211.943 139.211 213.661 139.211 215.597C139.211 217.648 139.601 219.453 140.381 221.013C141.161 222.545 142.273 223.743 143.718 224.61C145.162 225.477 146.852 225.91 148.788 225.91C150.492 225.91 151.951 225.636 153.164 225.087C154.377 224.538 155.302 223.96 155.937 223.353L158.537 228.987Z" fill="white"/>
<path d="M162.882 215.727C162.882 213.531 163.301 211.451 164.139 209.487C164.976 207.523 166.132 205.789 167.605 204.287C169.108 202.756 170.841 201.557 172.805 200.691C174.77 199.824 176.864 199.391 179.088 199.391C181.342 199.391 183.451 199.824 185.415 200.691C187.379 201.557 189.113 202.756 190.615 204.287C192.146 205.789 193.33 207.523 194.168 209.487C195.035 211.451 195.468 213.531 195.468 215.727C195.468 217.98 195.035 220.089 194.168 222.053C193.33 224.018 192.146 225.751 190.615 227.253C189.113 228.727 187.379 229.882 185.415 230.72C183.451 231.558 181.356 231.977 179.132 231.977C176.878 231.977 174.77 231.558 172.805 230.72C170.841 229.882 169.108 228.727 167.605 227.253C166.132 225.751 164.976 224.018 164.139 222.053C163.301 220.089 162.882 217.98 162.882 215.727ZM169.382 215.727C169.382 217.605 169.815 219.323 170.682 220.883C171.577 222.415 172.776 223.642 174.279 224.567C175.781 225.462 177.471 225.91 179.348 225.91C181.168 225.91 182.801 225.462 184.245 224.567C185.718 223.642 186.874 222.415 187.712 220.883C188.549 219.323 188.968 217.605 188.968 215.727C188.968 213.791 188.535 212.058 187.668 210.527C186.802 208.967 185.632 207.739 184.158 206.844C182.685 205.919 181.024 205.457 179.175 205.457C177.326 205.457 175.665 205.919 174.192 206.844C172.719 207.739 171.549 208.967 170.682 210.527C169.815 212.058 169.382 213.791 169.382 215.727Z" fill="white"/>
<path d="M201.732 231.63V199.737H211.265C214.472 199.737 217.202 200.214 219.455 201.167C221.708 202.121 223.514 203.392 224.872 204.98C226.258 206.569 227.269 208.346 227.905 210.31C228.54 212.275 228.858 214.254 228.858 216.247C228.858 218.616 228.425 220.753 227.558 222.66C226.721 224.538 225.565 226.156 224.092 227.513C222.618 228.842 220.914 229.868 218.978 230.59C217.043 231.283 214.992 231.63 212.825 231.63H201.732ZM208.015 225.563H211.742C213.88 225.563 215.743 225.202 217.332 224.48C218.921 223.729 220.148 222.631 221.015 221.187C221.911 219.742 222.358 217.951 222.358 215.814C222.358 213.734 222.012 212.044 221.318 210.744C220.654 209.415 219.816 208.389 218.805 207.667C217.823 206.945 216.812 206.454 215.772 206.194C214.732 205.905 213.851 205.76 213.129 205.76H208.015V225.563Z" fill="white"/>
<path d="M235.162 199.737H256.915V205.804H241.446V212.607H255.139V218.674H241.446V225.563H257.522V231.63H235.162V199.737Z" fill="white"/>
<path d="M134.618 241.691H140.901V273.584H134.618V241.691Z" fill="white"/>
<path d="M156.802 273.974L145.449 254.647H152.642L159.099 267.734L155.372 267.604L160.962 254.647H167.722L156.976 273.974H156.802Z" fill="white"/>
<path d="M172.8 282.683L185.409 254.647H190.869L178.65 282.683H172.8ZM177.87 273.67L168.597 254.647H175.4L182.55 270.637L177.87 273.67Z" fill="white"/>
<path d="M192.199 0.0837421C216.217 0.0837421 240.236 0.266625 264.25 0.00245805C275.752 -0.124545 281.045 4.66095 280.989 16.4621C280.761 63.997 280.715 111.532 280.999 159.062C281.076 172.163 274.289 175.674 262.696 175.613C220.795 175.389 178.889 175.491 136.988 175.501C112.456 175.511 104.068 183.863 103.86 208.74C103.718 226.114 103.545 243.504 103.987 260.873C104.327 274.178 99.5165 280.711 85.2057 280.269C62.7413 279.578 40.2363 279.832 17.7618 280.208C5.53389 280.411 -0.110149 275.331 0.0320952 262.935C0.301343 239.937 0.220062 216.935 0.00161559 193.937C-0.115228 181.551 6.10794 176.365 17.9396 176.395C36.8479 176.451 55.7561 176.446 74.6593 176.293C95.7826 176.126 104.719 167.805 104.901 146.727C105.267 104.821 104.957 62.9047 105.1 20.9936C105.166 1.66367 106.852 0.134546 126.263 0.0939046C148.235 0.0481833 170.212 0.0837421 192.183 0.0837421H192.199Z" fill="#02FFAA"/>
<path d="M191.453 34.4497C191.534 40.1699 191.722 45.2704 191.585 50.3556C191.559 51.3056 190.421 52.469 189.502 53.1091C179.555 60.0079 169.547 66.8204 159.554 73.6582C158.762 74.2018 157.964 74.7352 156.755 75.548C158.676 76.7622 160.256 77.7884 161.871 78.7688C170.548 84.042 179.24 89.2949 187.917 94.5681C190.741 96.2852 192.205 100.563 191.224 103.799C190.406 106.501 189.746 109.245 188.928 112.293C179.001 106.572 169.588 101.188 160.215 95.7365C153.118 91.6064 146.046 87.4254 139 83.2038C133.031 79.6274 132.772 73.1147 138.502 69.2487C154.769 58.2857 171.086 47.3888 187.399 36.497C188.476 35.7807 189.72 35.3133 191.448 34.4497H191.453Z" fill="#083B3D"/>
<path d="M206.943 44.3987C211.735 44.3987 215.619 40.5139 215.619 35.7218C215.619 30.9297 211.735 27.0449 206.943 27.0449C202.15 27.0449 198.266 30.9297 198.266 35.7218C198.266 40.5139 202.15 44.3987 206.943 44.3987Z" fill="#083B3D"/>
<path d="M196.319 144.842C196.238 139.121 196.05 134.021 196.187 128.936C196.213 127.986 197.351 126.822 198.27 126.182C208.217 119.283 218.225 112.471 228.218 105.633C229.01 105.089 229.808 104.556 231.017 103.743C229.096 102.529 227.517 101.503 225.901 100.522C217.224 95.2492 208.532 89.9963 199.855 84.7231C197.031 83.0061 195.568 78.7286 196.548 75.4925C197.366 72.7899 198.026 70.0466 198.844 66.9985C208.771 72.7188 218.184 78.1037 227.557 83.5547C234.654 87.6849 241.726 91.8658 248.772 96.0874C254.741 99.6638 255 106.177 249.27 110.043C233.003 121.005 216.686 131.902 200.373 142.794C199.296 143.511 198.052 143.978 196.324 144.842H196.319Z" fill="#083B3D"/>
<path d="M182.399 150.202C187.109 150.202 190.928 146.383 190.928 141.672C190.928 136.961 187.109 133.143 182.399 133.143C177.688 133.143 173.869 136.961 173.869 141.672C173.869 146.383 177.688 150.202 182.399 150.202Z" fill="#083B3D"/>
<path d="M80.9532 223.585C80.7348 223.295 80.3081 222.934 79.5511 222.863L78.596 222.767C77.3209 222.635 76.0001 222.503 74.6843 222.452C71.3924 222.33 67.5823 222.442 63.9094 224.047C63.8941 223.778 63.8789 223.514 63.8586 223.244C63.8078 222.579 63.7468 221.822 63.63 221.075C62.2482 212.271 57.9758 204.636 50.9296 198.372C49.8983 197.458 48.9484 197.473 48.0187 198.413C47.6224 198.814 47.2211 199.21 46.8249 199.612C45.5294 200.897 44.1883 202.228 43.0198 203.686C38.3817 209.482 35.7298 215.98 35.1405 222.985C35.1101 223.336 35.0897 223.686 35.0643 224.042C33.7029 223.432 32.1788 223.006 30.4262 222.741C27.3324 222.279 23.9439 222.299 19.768 222.818C19.321 222.873 18.3964 222.99 17.802 223.854L17.6445 224.083V225.205L17.6649 225.398C17.7665 225.845 17.863 226.297 17.9595 226.75C18.1729 227.74 18.3913 228.766 18.6606 229.772C20.1998 235.543 22.43 240.166 25.4832 243.9C28.8564 248.02 33.0475 250.54 37.9498 251.393C41.6685 252.039 44.8487 251.713 47.6174 250.393V251.719C47.6174 254.172 47.6275 256.626 47.6072 259.08C47.6072 259.435 47.597 260.517 48.608 261.218L48.8366 261.376H50.1219L50.3556 261.213C51.3614 260.507 51.3563 259.43 51.3513 259.075C51.3309 256.601 51.336 254.121 51.3411 251.642V250.382C54.313 251.81 57.5948 252.089 61.6385 251.261C66.6577 250.24 70.8895 247.441 74.2221 242.935C77.7781 238.124 80.0896 232.292 81.2834 225.104C81.4054 224.362 81.1717 223.869 80.9532 223.585ZM51.3614 245.846C51.4122 244.693 51.397 243.545 51.3716 242.386C52.1438 242.056 52.9109 241.716 53.678 241.37C54.5721 240.974 55.4713 240.573 56.3298 240.192C57.041 240.664 57.737 241.152 58.433 241.645C58.9664 242.021 59.5049 242.396 60.0434 242.762C60.5006 243.072 61.0289 243.189 61.5217 243.092C62.0094 243.001 62.431 242.711 62.7206 242.28C63.2947 241.421 63.1118 240.385 62.2736 239.704C62.1161 239.577 61.9535 239.465 61.7859 239.348L60.4041 238.383C61.7046 237.809 62.9695 237.245 64.2193 236.656C64.6968 236.427 65.2607 235.909 65.4486 235.264C65.6366 234.609 65.2861 233.689 64.7171 233.333C64.1888 233.008 63.3861 232.942 62.8019 233.176C61.6792 233.633 60.5616 234.131 59.4846 234.619L58.8597 234.898L59.0528 233.232C59.0832 232.983 59.1137 232.729 59.1137 232.48C59.1239 231.434 58.4228 230.641 57.4169 230.555C56.3654 230.458 55.4967 231.159 55.3544 232.206L55.2731 232.815C55.1207 233.923 54.9683 235.061 54.8769 236.204C54.8362 236.697 54.755 236.778 54.4247 236.905C53.4544 237.271 52.5095 237.702 51.59 238.119C51.5189 238.149 51.4478 238.185 51.3767 238.215V236.432C51.3767 233.552 51.3767 230.671 51.3665 227.791C51.3665 227.761 51.3665 227.74 51.3665 227.725C51.3817 227.715 51.4071 227.695 51.4478 227.674C52.5197 227.059 53.5764 226.419 54.6279 225.779L55.0902 225.5C56.1926 224.834 56.5381 223.773 55.9691 222.792C55.7049 222.34 55.3239 222.035 54.8566 221.918C54.4857 221.822 53.8761 221.802 53.109 222.259C52.5349 222.599 51.966 222.945 51.3716 223.295V221.593C51.3716 220.079 51.3716 218.566 51.3716 217.047C51.3665 215.924 50.5791 215.101 49.5021 215.091H49.4818C48.4149 215.091 47.6428 215.868 47.597 216.991C47.592 217.108 47.597 217.219 47.597 217.336V217.453V223.29L46.0374 222.36C44.2086 221.268 43.3196 222.269 43.0249 222.752C42.6845 223.31 42.7049 223.803 42.7861 224.118C42.9233 224.687 43.345 225.175 44.0765 225.612L45.0011 226.165C45.8698 226.684 46.7385 227.202 47.5818 227.74C47.597 231.179 47.597 234.619 47.592 238.058V238.215C47.4853 238.17 47.3786 238.124 47.2719 238.073C46.9519 237.931 46.6318 237.789 46.3168 237.641C45.6412 237.337 44.9604 237.027 44.2746 236.747C44.2187 236.722 44.1883 236.707 44.1781 236.707C44.1781 236.691 44.1679 236.661 44.1629 236.61C44.0359 235.427 43.8885 234.248 43.7361 233.069L43.6447 232.343C43.4974 231.174 42.6947 230.448 41.5974 230.544C41.0741 230.58 40.6322 230.793 40.3172 231.164C40.0835 231.439 39.8143 231.931 39.8803 232.704C39.926 233.288 40.0022 233.872 40.0784 234.451C40.0988 234.598 40.114 234.746 40.1343 234.888L37.64 233.786C37.2234 233.598 36.8119 233.415 36.3953 233.232C35.5927 232.881 35.0034 232.978 34.6528 233.12C34.3379 233.247 33.9061 233.532 33.647 234.162C33.3117 234.974 33.459 236.072 34.8865 236.712L38.59 238.363C38.0159 238.764 37.4571 239.16 36.9084 239.567C36.502 239.867 36.0092 240.359 35.9584 240.984C35.9076 241.619 36.2429 242.28 36.5935 242.656C37.198 243.291 38.1073 243.341 38.9151 242.777L39.8193 242.158C40.6576 241.584 41.5263 240.989 42.3543 240.359C42.5982 240.171 42.6693 240.151 42.9944 240.309C44.5388 241.055 46.0984 241.731 47.6224 242.386C47.6123 242.93 47.6123 243.479 47.6123 244.022C47.6123 244.672 47.6123 245.323 47.597 245.958C47.592 245.993 47.5564 246.059 47.5666 246.059C45.5853 247.492 43.3348 248.107 40.688 247.924C34.536 247.517 29.7759 244.347 26.1334 238.231C24.1522 234.903 22.7145 231.017 21.7391 226.364C21.9576 226.348 22.1709 226.333 22.3843 226.323C23.5527 226.242 24.6602 226.17 25.7728 226.17H25.8134C28.704 226.176 31.0866 226.384 33.3066 227.39C34.0077 227.71 34.6884 228.243 35.3488 228.761L35.5469 228.914C35.8975 229.188 36.6239 229.757 37.6044 229.391C38.4121 229.086 38.8592 228.39 38.8287 227.476C38.7474 224.966 38.8643 222.899 39.1996 220.979C40.0276 216.244 41.9428 211.712 44.9046 207.516C46.2965 205.54 47.8104 203.777 49.5072 202.146C49.5224 202.162 49.5326 202.172 49.5478 202.187C49.9949 202.624 50.4368 203.061 50.8585 203.513C55.2528 208.263 58.057 213.369 59.4338 219.119C60.0535 221.705 60.3025 224.387 60.1856 227.324C60.1501 228.248 60.4803 228.904 61.1661 229.28C61.9738 229.716 62.8578 229.579 63.4268 228.929C64.6815 227.501 66.4596 226.983 68.197 226.633C70.8285 226.104 73.6429 226.033 77.2498 226.414C77.1736 226.79 77.0974 227.161 77.011 227.532C75.6851 233.125 73.7852 237.398 71.0266 240.964C68.1106 244.743 64.6206 246.943 60.3583 247.695C56.7819 248.325 53.9929 247.853 51.59 246.201C51.3665 246.049 51.3665 246.019 51.3716 245.856L51.3614 245.846Z" fill="#083B3D"/>
</svg>
